<?xml version="1.0" encoding="UTF-8"?> <svg xmlns="http://www.w3.org/2000/svg" width="184" height="37" viewBox="0 0 184 37" fill="none"> <path d="M26.7723 0.122221L9.18582 0.108911C4.13549 0.105088 0.0382832 4.1961 0.0344609 9.24643L0.0211506 26.8329C0.0173282 31.8832 4.10834 35.9804 9.15867 35.9842L26.7451 35.9975C31.7954 36.0014 35.8926 31.9104 35.8965 26.86L35.9098 9.27358C35.9136 4.22325 31.8226 0.126043 26.7723 0.122221Z" fill="#4110FF"></path> <path d="M15.1959 20.19L11.5061 27.2985L8.18237 27.296L11.8722 20.1876L15.1959 20.19ZM16.0166 25.3395L15.9983 22.2298L15.9962 21.3501L14.1129 21.3487C12.3266 21.3473 10.8926 20.8652 9.81118 19.9026C8.72978 18.9227 8.18968 17.6426 8.19087 16.0622C8.19212 14.4305 8.74278 13.0911 9.84291 12.0441C10.943 10.98 12.3691 10.4486 14.1211 10.4499L15.9409 10.4513L16.0166 25.3395ZM15.9827 18.4128L15.9573 14.2188L15.24 14.2182L14.4017 14.2176C13.3883 14.2168 12.8319 14.1876 12.3162 14.651C11.8006 15.1143 11.7237 15.1708 11.723 15.9952C11.7225 16.7853 11.5909 17.3789 12.1059 17.7916C12.6209 18.2041 13.3851 18.4109 14.3986 18.4117L15.9827 18.4128Z" fill="white"></path> <path d="M15.9827 18.4128L15.9962 21.3501L17.8543 21.3514L17.9103 19.8829L17.9663 18.4143L15.9827 18.4128Z" fill="white"></path> <path fill-rule="evenodd" clip-rule="evenodd" d="M17.1279 10.2278L17.113 10.2278C16.9254 10.2327 16.7467 10.3085 16.6127 10.4398C16.4787 10.5711 16.3992 10.7483 16.3905 10.9358C16.39 10.9449 16.3898 10.9543 16.3898 10.9634L16.4041 13.6129C16.4059 13.8062 16.4835 13.991 16.6203 14.1276C16.6879 14.1961 16.7683 14.2506 16.8571 14.2879C16.9458 14.3252 17.041 14.3446 17.1372 14.3448L18.7744 14.3544C18.8709 14.355 18.9664 14.3364 19.0557 14.3C19.1449 14.2634 19.2261 14.2097 19.2944 14.1416C19.3628 14.0736 19.4169 13.9928 19.4539 13.9037C19.4909 13.8147 19.5098 13.7191 19.5097 13.6227L19.5092 13.6088L19.5071 13.5236C19.5074 13.5177 19.509 13.512 19.5117 13.5068C19.5143 13.5016 19.518 13.497 19.5225 13.4933C19.6513 13.5293 19.7659 13.6041 19.8507 13.7076C19.8831 13.7477 19.9932 13.9017 20.0641 14.2C20.1112 14.4016 20.152 15.0721 20.1767 15.5146C20.1842 15.6534 20.2448 15.7841 20.3457 15.8797C20.4467 15.9752 20.5804 16.0284 20.7195 16.0284L22.3723 16.0297C22.5039 16.03 22.631 15.9826 22.7301 15.8963C22.8293 15.8101 22.8939 15.6908 22.9119 15.5606C23.0099 14.8733 23.1645 14.3398 23.2607 14.2524C23.7397 13.8188 24.1795 13.6498 24.6864 13.7052C24.983 13.7402 25.5149 13.958 25.8575 14.2489C26.0182 14.3848 26.1581 14.5434 26.2728 14.7199C26.3257 14.8067 26.3733 14.8967 26.4154 14.9892C26.4632 15.096 26.5442 15.1846 26.6463 15.2416C26.7485 15.2987 26.8663 15.3212 26.9823 15.306C27.0983 15.2908 27.2063 15.2384 27.2902 15.1569C27.3741 15.0753 27.4294 14.9689 27.448 14.8533C27.4864 14.612 27.503 14.3677 27.4975 14.1232C27.4799 13.6999 27.2461 12.7812 26.4888 12.0227C26.0521 11.5849 25.5341 11.2367 24.9638 10.9977C23.4627 10.365 22.1731 10.2612 21.5381 10.2559H21.5342C21.1039 10.2555 20.6741 10.2868 20.2483 10.3496C19.8831 10.4103 19.664 10.6616 19.5185 10.8284L19.5173 10.8298C19.515 10.8326 19.5125 10.8356 19.5101 10.8386C19.504 10.846 19.4975 10.8539 19.4902 10.8613C19.4654 10.7073 19.3929 10.565 19.2828 10.4545C19.2151 10.386 19.1347 10.3315 19.0459 10.2943C18.9571 10.257 18.8619 10.2377 18.7655 10.2375L17.1279 10.2278Z" fill="white"></path> <path d="M20.88 16.6286L22.1344 16.6292C22.4216 16.6295 22.6972 16.7433 22.9008 16.9461C23.1043 17.1489 23.2193 17.424 23.2205 17.7112L23.5504 26.0948C23.5593 26.4032 23.4726 26.6981 23.2685 26.921C23.1672 27.0315 23.0442 27.1198 22.9072 27.1806C22.7701 27.2413 22.6221 27.2732 22.4722 27.2742L20.5885 27.2831H20.5852C20.2962 27.2825 20.0191 27.1677 19.8142 26.9638L19.7859 26.9355C19.5805 26.7139 19.4896 26.4225 19.4983 26.1105L19.7929 17.7192C19.7923 17.5762 19.8201 17.4345 19.8745 17.3021C19.929 17.1698 20.009 17.0495 20.11 16.9481C20.211 16.8468 20.331 16.7665 20.4631 16.7116C20.5952 16.6567 20.7369 16.6285 20.88 16.6286Z" fill="#FF913E"></path> <path d="M16.6097 18.4111L16.6129 14.2092L13.8154 14.2071C11.8614 14.2056 11.3187 15.4862 11.3181 16.1932C11.3063 18.1393 12.9753 18.3828 13.8123 18.409L16.6097 18.4111Z" fill="#4110FF"></path> <path d="M55.1733 24H52.5312V11.6562H50.1165C49.4631 11.6562 48.9257 11.7533 48.5043 11.9474C48.0876 12.1368 47.7775 12.4162 47.5739 12.7855C47.375 13.1501 47.2756 13.5904 47.2756 14.1065C47.2756 14.6226 47.375 15.0582 47.5739 15.4134C47.7727 15.7637 48.0805 16.0312 48.4972 16.2159C48.9186 16.3958 49.4536 16.4858 50.1023 16.4858H53.6392V18.6733H49.7472C48.6297 18.6733 47.6875 18.4886 46.9205 18.1193C46.1534 17.7453 45.571 17.2173 45.1733 16.5355C44.7803 15.849 44.5838 15.0393 44.5838 14.1065C44.5838 13.1785 44.7779 12.3665 45.1662 11.6705C45.5592 10.9697 46.1368 10.4252 46.8991 10.0369C47.6615 9.64867 48.599 9.45455 49.7116 9.45455H55.1733V24ZM47.652 17.4091H50.5284L46.9915 24H44.0511L47.652 17.4091ZM57.9148 28.0909V13.0909H60.4432V14.8949H60.5923C60.7249 14.6297 60.9119 14.348 61.1534 14.0497C61.3949 13.7467 61.7216 13.4886 62.1335 13.2756C62.5455 13.0578 63.071 12.9489 63.7102 12.9489C64.553 12.9489 65.313 13.1643 65.9901 13.5952C66.6719 14.0213 67.2116 14.6534 67.6094 15.4915C68.0118 16.3248 68.2131 17.3475 68.2131 18.5597C68.2131 19.7576 68.0166 20.7756 67.6236 21.6136C67.2306 22.4517 66.6955 23.0909 66.0185 23.5312C65.3414 23.9716 64.5743 24.1918 63.7173 24.1918C63.0923 24.1918 62.5739 24.0876 62.1619 23.8793C61.75 23.6709 61.4186 23.42 61.1676 23.1264C60.9214 22.8281 60.7296 22.5464 60.5923 22.2812H60.4858V28.0909H57.9148ZM60.4361 18.5455C60.4361 19.2509 60.5355 19.8688 60.7344 20.3991C60.938 20.9295 61.2292 21.3437 61.608 21.642C61.9915 21.9356 62.4555 22.0824 63 22.0824C63.5682 22.0824 64.044 21.9309 64.4276 21.6278C64.8111 21.3201 65.0999 20.901 65.294 20.3707C65.4929 19.8357 65.5923 19.2273 65.5923 18.5455C65.5923 17.8684 65.4953 17.267 65.3011 16.7415C65.107 16.2159 64.8182 15.804 64.4347 15.5057C64.0511 15.2074 63.5729 15.0582 63 15.0582C62.4508 15.0582 61.9844 15.2027 61.6009 15.4915C61.2173 15.7803 60.9261 16.1851 60.7273 16.706C60.5331 17.2268 60.4361 17.84 60.4361 18.5455ZM70.4148 24V13.0909H72.9858V17.4943H73.9233L77.2045 13.0909H80.3011L76.2599 18.446L80.3438 24H77.233L74.2429 19.8878H72.9858V24H70.4148ZM86.1108 24.2131C85.0455 24.2131 84.1222 23.9787 83.3409 23.5099C82.5597 23.0412 81.9536 22.3854 81.5227 21.5426C81.0966 20.6998 80.8835 19.715 80.8835 18.5881C80.8835 17.4612 81.0966 16.474 81.5227 15.6264C81.9536 14.7789 82.5597 14.1207 83.3409 13.652C84.1222 13.1832 85.0455 12.9489 86.1108 12.9489C87.1761 12.9489 88.0994 13.1832 88.8807 13.652C89.6619 14.1207 90.2656 14.7789 90.6918 15.6264C91.1226 16.474 91.3381 17.4612 91.3381 18.5881C91.3381 19.715 91.1226 20.6998 90.6918 21.5426C90.2656 22.3854 89.6619 23.0412 88.8807 23.5099C88.0994 23.9787 87.1761 24.2131 86.1108 24.2131ZM86.125 22.1534C86.7027 22.1534 87.1856 21.9948 87.5739 21.6776C87.9621 21.3556 88.2509 20.9247 88.4403 20.3849C88.6345 19.8452 88.7315 19.2438 88.7315 18.581C88.7315 17.9134 88.6345 17.3097 88.4403 16.7699C88.2509 16.2254 87.9621 15.7921 87.5739 15.4702C87.1856 15.1482 86.7027 14.9872 86.125 14.9872C85.5331 14.9872 85.0407 15.1482 84.6477 15.4702C84.2595 15.7921 83.9683 16.2254 83.7741 16.7699C83.5848 17.3097 83.4901 17.9134 83.4901 18.581C83.4901 19.2438 83.5848 19.8452 83.7741 20.3849C83.9683 20.9247 84.2595 21.3556 84.6477 21.6776C85.0407 21.9948 85.5331 22.1534 86.125 22.1534ZM93.5202 24V13.0909H98.1012C99.3938 13.0909 100.414 13.349 101.162 13.8651C101.915 14.3812 102.292 15.1009 102.292 16.0241C102.292 16.6349 102.078 17.1345 101.652 17.5227C101.231 17.9062 100.656 18.1643 99.9265 18.2969C100.499 18.3442 101.001 18.4886 101.432 18.7301C101.868 18.9716 102.209 19.2888 102.455 19.6818C102.701 20.0748 102.824 20.527 102.824 21.0384C102.824 21.6397 102.666 22.1629 102.348 22.608C102.036 23.0483 101.579 23.3916 100.978 23.6378C100.381 23.8793 99.6566 24 98.8043 24H93.5202ZM95.9279 21.9759H98.8043C99.2778 21.9759 99.6495 21.8646 99.9194 21.642C100.189 21.4148 100.324 21.107 100.324 20.7188C100.324 20.2689 100.189 19.9162 99.9194 19.6605C99.6495 19.4001 99.2778 19.2699 98.8043 19.2699H95.9279V21.9759ZM95.9279 17.608H98.1509C98.5013 17.608 98.802 17.5582 99.0529 17.4588C99.3039 17.3546 99.4956 17.2102 99.6282 17.0256C99.7608 16.8362 99.8271 16.6113 99.8271 16.3509C99.8271 15.9768 99.6732 15.6832 99.3654 15.4702C99.0624 15.2571 98.641 15.1506 98.1012 15.1506H95.9279V17.608Z" fill="black"></path> <path d="M110.021 24V9.45455H115.475C116.593 9.45455 117.53 9.66288 118.288 10.0795C119.05 10.4962 119.625 11.0691 120.013 11.7983C120.406 12.5227 120.603 13.3466 120.603 14.2699C120.603 15.2027 120.406 16.0312 120.013 16.7557C119.621 17.4801 119.04 18.0507 118.273 18.4673C117.506 18.8793 116.562 19.0852 115.44 19.0852H111.825V16.919H115.085C115.738 16.919 116.273 16.8054 116.69 16.5781C117.106 16.3509 117.414 16.0384 117.613 15.6406C117.817 15.2429 117.918 14.786 117.918 14.2699C117.918 13.7538 117.817 13.2992 117.613 12.9062C117.414 12.5133 117.104 12.2079 116.683 11.9901C116.266 11.7675 115.728 11.6562 115.07 11.6562H112.656V24H110.021ZM127.451 24.2131C126.358 24.2131 125.413 23.9858 124.618 23.5312C123.827 23.072 123.218 22.4233 122.792 21.5852C122.366 20.7424 122.153 19.7505 122.153 18.6094C122.153 17.4872 122.366 16.5024 122.792 15.6548C123.223 14.8026 123.824 14.1397 124.596 13.6662C125.368 13.188 126.275 12.9489 127.316 12.9489C127.989 12.9489 128.623 13.0578 129.22 13.2756C129.821 13.4886 130.351 13.8201 130.811 14.2699C131.275 14.7197 131.639 15.2926 131.904 15.9886C132.17 16.6799 132.302 17.5038 132.302 18.4602V19.2486H123.36V17.5156H129.838C129.833 17.0232 129.726 16.5852 129.518 16.2017C129.31 15.8134 129.019 15.508 128.645 15.2855C128.275 15.063 127.844 14.9517 127.352 14.9517C126.826 14.9517 126.365 15.0795 125.967 15.3352C125.569 15.5862 125.259 15.9176 125.037 16.3295C124.819 16.7367 124.708 17.1842 124.703 17.6719V19.1847C124.703 19.8191 124.819 20.3636 125.051 20.8182C125.283 21.268 125.607 21.6136 126.024 21.8551C126.44 22.0919 126.928 22.2102 127.487 22.2102C127.861 22.2102 128.199 22.1581 128.502 22.054C128.806 21.9451 129.068 21.7865 129.291 21.5781C129.513 21.3698 129.681 21.1117 129.795 20.804L132.196 21.0739C132.044 21.7083 131.755 22.2623 131.329 22.7358C130.908 23.2045 130.368 23.5691 129.71 23.8295C129.052 24.0852 128.299 24.2131 127.451 24.2131ZM140.756 21.0099L143.994 13.0909H146.068L141.658 24H139.861L135.55 13.0909H137.602L140.756 21.0099ZM136.956 13.0909V24H134.477V13.0909H136.956ZM144.662 24V13.0909H147.119V24H144.662ZM154.47 24.2131C153.405 24.2131 152.482 23.9787 151.7 23.5099C150.919 23.0412 150.313 22.3854 149.882 21.5426C149.456 20.6998 149.243 19.715 149.243 18.5881C149.243 17.4612 149.456 16.474 149.882 15.6264C150.313 14.7789 150.919 14.1207 151.7 13.652C152.482 13.1832 153.405 12.9489 154.47 12.9489C155.536 12.9489 156.459 13.1832 157.24 13.652C158.021 14.1207 158.625 14.7789 159.051 15.6264C159.482 16.474 159.697 17.4612 159.697 18.5881C159.697 19.715 159.482 20.6998 159.051 21.5426C158.625 22.3854 158.021 23.0412 157.24 23.5099C156.459 23.9787 155.536 24.2131 154.47 24.2131ZM154.484 22.1534C155.062 22.1534 155.545 21.9948 155.933 21.6776C156.321 21.3556 156.61 20.9247 156.8 20.3849C156.994 19.8452 157.091 19.2438 157.091 18.581C157.091 17.9134 156.994 17.3097 156.8 16.7699C156.61 16.2254 156.321 15.7921 155.933 15.4702C155.545 15.1482 155.062 14.9872 154.484 14.9872C153.893 14.9872 153.4 15.1482 153.007 15.4702C152.619 15.7921 152.328 16.2254 152.134 16.7699C151.944 17.3097 151.849 17.9134 151.849 18.581C151.849 19.2438 151.944 19.8452 152.134 20.3849C152.328 20.9247 152.619 21.3556 153.007 21.6776C153.4 21.9948 153.893 22.1534 154.484 22.1534ZM169.373 17.4801V19.5895H163.563V17.4801H169.373ZM164.358 13.0909V24H161.88V13.0909H164.358ZM171.056 13.0909V24H168.584V13.0909H171.056ZM172.435 15.2003V13.0909H181.981V15.2003H178.451V24H175.965V15.2003H172.435Z" fill="#4110FF"></path> </svg> 