<?xml version="1.0" encoding="UTF-8"?> <svg xmlns="http://www.w3.org/2000/svg" width="173" height="37" viewBox="0 0 173 37" fill="none"> <rect x="0.457275" y="1.65039" width="31.6074" height="31.6074" rx="15.8037" fill="#157BFB"></rect> <rect x="27.9228" y="1.52608" width="33.6207" height="33.6207" rx="16.8103" fill="white" stroke="#F6F6FA" stroke-width="2.01327"></rect> <path d="M23.9379 14.0126C24.0614 13.6025 23.9379 13.3018 23.3541 13.3018H21.4201C20.928 13.3018 20.7031 13.5619 20.5796 13.8477C20.5796 13.8477 19.5963 16.2455 18.2029 17.8003C17.7531 18.2528 17.5477 18.3956 17.3025 18.3956C17.1799 18.3956 17.0018 18.2528 17.0018 17.8427V14.0126C17.0018 13.5205 16.8598 13.3018 16.4497 13.3018H13.4106C13.1037 13.3018 12.9185 13.5293 12.9185 13.7462C12.9185 14.2119 13.6152 14.3195 13.6867 15.6317V18.4785C13.6867 19.102 13.5747 19.2158 13.3277 19.2158C12.6725 19.2158 11.078 16.8091 10.1317 14.054C9.94741 13.5187 9.76133 13.3026 9.26746 13.3026H7.33433C6.78138 13.3026 6.67114 13.5628 6.67114 13.8485C6.67114 14.3618 7.3264 16.9017 9.72341 20.2609C11.3214 22.5547 13.5712 23.7982 15.6207 23.7982C16.8492 23.7982 17.0009 23.5221 17.0009 23.0459V21.3121C17.0009 20.76 17.1182 20.6489 17.5071 20.6489C17.7928 20.6489 18.2849 20.7935 19.4323 21.8985C20.7428 23.2091 20.9597 23.7973 21.6961 23.7973H23.6293C24.1813 23.7973 24.4574 23.5212 24.2986 22.9762C24.1249 22.4339 23.4987 21.6446 22.668 20.7106C22.2164 20.178 21.5418 19.6047 21.3363 19.3181C21.0497 18.9486 21.1326 18.7854 21.3363 18.4574C21.3372 18.4582 23.6928 15.1405 23.9379 14.0126Z" fill="white"></path> <g clip-path="url(#clip0_176_367)"> <path d="M47.8667 26.3852C49.9954 26.3852 51.7211 24.6595 51.7211 22.5307C51.7211 20.402 49.9954 18.6763 47.8667 18.6763C45.7379 18.6763 44.0122 20.402 44.0122 22.5307C44.0122 24.6595 45.7379 26.3852 47.8667 26.3852Z" fill="#97CF26"></path> <path d="M40.6213 24.3242C41.6122 24.3242 42.4155 23.5209 42.4155 22.53C42.4155 21.5391 41.6122 20.7358 40.6213 20.7358C39.6304 20.7358 38.8271 21.5391 38.8271 22.53C38.8271 23.5209 39.6304 24.3242 40.6213 24.3242Z" fill="#A169F7"></path> <path d="M47.8669 17.7661C49.2371 17.7661 50.3479 16.6553 50.3479 15.2851C50.3479 13.915 49.2371 12.8042 47.8669 12.8042C46.4967 12.8042 45.386 13.915 45.386 15.2851C45.386 16.6553 46.4967 17.7661 47.8669 17.7661Z" fill="#FF6163"></path> <path d="M40.6213 18.4526C42.3708 18.4526 43.789 17.0344 43.789 15.2849C43.789 13.5354 42.3708 12.1172 40.6213 12.1172C38.8718 12.1172 37.4536 13.5354 37.4536 15.2849C37.4536 17.0344 38.8718 18.4526 40.6213 18.4526Z" fill="#00AAFF"></path> </g> <path d="M88.5278 20.0696C88.3457 20.2461 88.262 20.5014 88.3035 20.7517L88.9287 24.2114C88.9814 24.5046 88.8576 24.8014 88.6122 24.9709C88.3717 25.1467 88.0518 25.1678 87.7895 25.0271L84.675 23.4027C84.5667 23.3451 84.4465 23.3141 84.3234 23.3106H84.1329C84.0668 23.3205 84.0021 23.3416 83.943 23.3739L80.8278 25.006C80.6738 25.0834 80.4994 25.1108 80.3286 25.0834C79.9123 25.0046 79.6345 24.608 79.7027 24.1896L80.3286 20.7299C80.3701 20.4774 80.2864 20.2208 80.1042 20.0415L77.565 17.5803C77.3526 17.3742 77.2788 17.0648 77.3758 16.7857C77.4701 16.5072 77.7106 16.304 78.001 16.2583L81.4959 15.7513C81.7617 15.7238 81.9951 15.5621 82.1147 15.323L83.6547 12.1657C83.6912 12.0953 83.7384 12.0307 83.7953 11.9758L83.8586 11.9266C83.8917 11.89 83.9296 11.8598 83.9718 11.8352L84.0485 11.807L84.168 11.7578H84.4641C84.7285 11.7852 84.9612 11.9435 85.0829 12.1797L86.6433 15.323C86.7558 15.553 86.9745 15.7126 87.2269 15.7513L90.7218 16.2583C91.0171 16.3005 91.264 16.5044 91.3617 16.7857C91.4538 17.0676 91.3744 17.3771 91.1578 17.5803L88.5278 20.0696Z" fill="#191919"></path> <path d="M108.405 20.0696C108.222 20.2461 108.139 20.5014 108.18 20.7517L108.805 24.2114C108.858 24.5046 108.734 24.8014 108.489 24.9709C108.248 25.1467 107.928 25.1678 107.666 25.0271L104.552 23.4027C104.443 23.3451 104.323 23.3141 104.2 23.3106H104.01C103.943 23.3205 103.879 23.3416 103.82 23.3739L100.705 25.006C100.551 25.0834 100.376 25.1108 100.205 25.0834C99.789 25.0046 99.5112 24.608 99.5794 24.1896L100.205 20.7299C100.247 20.4774 100.163 20.2208 99.981 20.0415L97.4417 17.5803C97.2293 17.3742 97.1555 17.0648 97.2526 16.7857C97.3468 16.5072 97.5873 16.304 97.8777 16.2583L101.373 15.7513C101.638 15.7238 101.872 15.5621 101.991 15.323L103.531 12.1657C103.568 12.0953 103.615 12.0307 103.672 11.9758L103.735 11.9266C103.768 11.89 103.806 11.8598 103.849 11.8352L103.925 11.807L104.045 11.7578H104.341C104.605 11.7852 104.838 11.9435 104.96 12.1797L106.52 15.323C106.632 15.553 106.851 15.7126 107.104 15.7513L110.599 16.2583C110.894 16.3005 111.141 16.5044 111.238 16.7857C111.331 17.0676 111.251 17.3771 111.034 17.5803L108.405 20.0696Z" fill="#191919"></path> <path d="M128.281 20.0696C128.099 20.2461 128.015 20.5014 128.057 20.7517L128.682 24.2114C128.735 24.5046 128.611 24.8014 128.366 24.9709C128.125 25.1467 127.805 25.1678 127.543 25.0271L124.428 23.4027C124.32 23.3451 124.2 23.3141 124.077 23.3106H123.886C123.82 23.3205 123.755 23.3416 123.696 23.3739L120.581 25.006C120.427 25.0834 120.253 25.1108 120.082 25.0834C119.666 25.0046 119.388 24.608 119.456 24.1896L120.082 20.7299C120.123 20.4774 120.04 20.2208 119.858 20.0415L117.318 17.5803C117.106 17.3742 117.032 17.0648 117.129 16.7857C117.223 16.5072 117.464 16.304 117.754 16.2583L121.249 15.7513C121.515 15.7238 121.749 15.5621 121.868 15.323L123.408 12.1657C123.445 12.0953 123.492 12.0307 123.549 11.9758L123.612 11.9266C123.645 11.89 123.683 11.8598 123.725 11.8352L123.802 11.807L123.921 11.7578H124.217C124.482 11.7852 124.715 11.9435 124.836 12.1797L126.397 15.323C126.509 15.553 126.728 15.7126 126.98 15.7513L130.475 16.2583C130.771 16.3005 131.017 16.5044 131.115 16.7857C131.207 17.0676 131.128 17.3771 130.911 17.5803L128.281 20.0696Z" fill="#191919"></path> <path d="M148.158 20.0696C147.976 20.2461 147.892 20.5014 147.934 20.7517L148.559 24.2114C148.612 24.5046 148.488 24.8014 148.242 24.9709C148.002 25.1467 147.682 25.1678 147.42 25.0271L144.305 23.4027C144.197 23.3451 144.077 23.3141 143.954 23.3106H143.763C143.697 23.3205 143.632 23.3416 143.573 23.3739L140.458 25.006C140.304 25.0834 140.13 25.1108 139.959 25.0834C139.542 25.0046 139.265 24.608 139.333 24.1896L139.959 20.7299C140 20.4774 139.917 20.2208 139.734 20.0415L137.195 17.5803C136.983 17.3742 136.909 17.0648 137.006 16.7857C137.1 16.5072 137.341 16.304 137.631 16.2583L141.126 15.7513C141.392 15.7238 141.625 15.5621 141.745 15.323L143.285 12.1657C143.321 12.0953 143.368 12.0307 143.425 11.9758L143.489 11.9266C143.522 11.89 143.56 11.8598 143.602 11.8352L143.679 11.807L143.798 11.7578H144.094C144.359 11.7852 144.591 11.9435 144.713 12.1797L146.273 15.323C146.386 15.553 146.605 15.7126 146.857 15.7513L150.352 16.2583C150.647 16.3005 150.894 16.5044 150.992 16.7857C151.084 17.0676 151.004 17.3771 150.788 17.5803L148.158 20.0696Z" fill="#191919"></path> <path d="M168.035 20.0696C167.853 20.2461 167.769 20.5014 167.81 20.7517L168.435 24.2114C168.488 24.5046 168.364 24.8014 168.119 24.9709C167.879 25.1467 167.559 25.1678 167.296 25.0271L164.182 23.4027C164.074 23.3451 163.953 23.3141 163.83 23.3106H163.64C163.574 23.3205 163.509 23.3416 163.45 23.3739L160.335 25.006C160.181 25.0834 160.006 25.1108 159.835 25.0834C159.419 25.0046 159.141 24.608 159.21 24.1896L159.835 20.7299C159.877 20.4774 159.793 20.2208 159.611 20.0415L157.072 17.5803C156.859 17.3742 156.786 17.0648 156.883 16.7857C156.977 16.5072 157.217 16.304 157.508 16.2583L161.003 15.7513C161.269 15.7238 161.502 15.5621 161.622 15.323L163.162 12.1657C163.198 12.0953 163.245 12.0307 163.302 11.9758L163.365 11.9266C163.398 11.89 163.436 11.8598 163.479 11.8352L163.555 11.807L163.675 11.7578H163.971C164.235 11.7852 164.468 11.9435 164.59 12.1797L166.15 15.323C166.263 15.553 166.481 15.7126 166.734 15.7513L170.229 16.2583C170.524 16.3005 170.771 16.5044 170.869 16.7857C170.961 17.0676 170.881 17.3771 170.665 17.5803L168.035 20.0696Z" fill="#191919"></path> <defs> <clipPath id="clip0_176_367"> <rect width="18.1993" height="19.2294" fill="white" transform="translate(35.0498 9.73096)"></rect> </clipPath> </defs> </svg> 